Coordinates
version=1
nRows=26
nColumns=22
inDegrees=yes

Units are S.I. units (second, meters, Newtons, ...)
If the header above contains a line with 'inDegrees', this indicates whether rotational values are in degrees (yes) or radians (no).

endheader
time	pelvis_tilt	pelvis_list	pelvis_rotation	pelvis_tx	pelvis_ty	pelvis_tz	hip_flexion_r	hip_adduction_r	hip_rotation_r	knee_angle_r	ankle_angle_r	subtalar_angle_r	hip_flexion_l	hip_adduction_l	hip_rotation_l	knee_angle_l	ankle_angle_l	subtalar_angle_l	lumbar_extension	lumbar_bending	lumbar_rotation
      1.35000000	     -0.87747692	      1.01384356	      6.07252156	     -1.11794275	      1.06824516	     -0.61564397	     14.65604903	     -2.60392743	      0.46494790	    -43.08045297	      9.22704766	      3.00193441	     -2.22729803	      4.60409230	      1.17399785	    -11.85983737	     15.61871695	     -4.10082276	     -6.47856941	     -3.52468436	     -8.46004262
      1.36000000	     -0.85933688	      1.03789798	      6.18266829	     -1.11755108	      1.06816246	     -0.61653613	     15.93057522	     -2.60777148	      0.62750235	    -45.18153098	      8.21967168	      3.41714616	     -2.29536584	      4.66070047	      1.26387655	    -11.82682715	     15.63808786	     -4.10189372	     -6.72116194	     -3.56469489	     -8.59032219
      1.37000000	     -0.84132619	      1.05373088	      6.29071735	     -1.11699623	      1.06807046	     -0.61737956	     17.17002768	     -2.60785571	      0.73352416	    -47.14760590	      7.34214612	      3.73506401	     -2.37242117	      4.70437713	      1.35634915	    -11.79402606	     15.66762191	     -4.10029719	     -6.95023432	     -3.59594449	     -8.71606412
      1.38000000	     -0.80365525	      1.06402238	      6.39807243	     -1.11626167	      1.06801669	     -0.61817708	     18.33656051	     -2.60435895	      0.78400710	    -48.94062189	      6.63709278	      3.88869718	     -2.49197554	      4.73539191	      1.45877260	    -11.73821225	     15.65343442	     -4.08744291	     -7.18971025	     -3.61837485	     -8.84513195
      1.39000000	     -0.79313020	      1.05635089	      6.51041763	     -1.11536109	      1.06791100	     -0.61896050	     19.47853732	     -2.60035408	      0.76076195	    -50.54619645	      6.15114378	      3.93091065	     -2.59467360	      4.74669191	      1.54733104	    -11.67434428	     15.69563802	     -4.08563443	     -7.38534178	     -3.61995634	     -8.96674564
      1.40000000	     -0.77442670	      1.03077096	      6.62344682	     -1.11427427	      1.06782767	     -0.61970337	     20.54590969	     -2.58852844	      0.67076794	    -51.93551496	      5.87676089	      3.82228295	     -2.71731313	      4.73437294	      1.64597002	    -11.60791948	     15.72491203	     -4.08546481	     -7.57403644	     -3.60227771	     -9.07371833
      1.41000000	     -0.76763570	      0.98415806	      6.73852721	     -1.11302156	      1.06773788	     -0.62042521	     21.55701435	     -2.56935605	      0.52200672	    -53.09522836	      5.79483453	      3.58219061	     -2.84084394	      4.69842398	      1.74459514	    -11.52956099	     15.76189679	     -4.09399395	     -7.73767094	     -3.55992826	     -9.17496217
      1.42000000	     -0.77164442	      0.91664736	      6.85230477	     -1.11158717	      1.06764335	     -0.62112484	     22.50796246	     -2.54640207	      0.31179675	    -54.01811058	      5.86846476	      3.24018713	     -2.96387731	      4.63997914	      1.84862750	    -11.44703105	     15.79681640	     -4.11194036	     -7.87243318	     -3.49527352	     -9.26367124
      1.43000000	     -0.77636993	      0.83014524	      6.96502174	     -1.10998451	      1.06756049	     -0.62181437	     23.38634387	     -2.52290476	      0.04476612	    -54.69867519	      6.05469516	      2.86311260	     -3.09488671	      4.55996722	      1.95104138	    -11.36179286	     15.82683078	     -4.13598019	     -7.99471880	     -3.40719566	     -9.33961278
      1.44000000	     -0.78594526	      0.73058256	      7.07277552	     -1.10822790	      1.06747569	     -0.62249257	     24.19878992	     -2.50357011	     -0.26759276	    -55.14104216	      6.30699209	      2.48658483	     -3.22532564	      4.46640782	      2.05070580	    -11.28088264	     15.85937280	     -4.16245422	     -8.10345935	     -3.30330842	     -9.39903441
      1.45000000	     -0.79771524	      0.62174942	      7.17388642	     -1.10632515	      1.06738021	     -0.62315529	     24.94311110	     -2.48816877	     -0.61296413	    -55.34953046	      6.60210174	      2.14829058	     -3.35667073	      4.36292386	      2.14908881	    -11.20632005	     15.90346072	     -4.18186405	     -8.20344513	     -3.18851853	     -9.44215645
      1.46000000	     -0.81255003	      0.50732130	      7.27128503	     -1.10428801	      1.06726201	     -0.62381587	     25.62025538	     -2.47801637	     -0.98228501	    -55.33146075	      6.91049776	      1.86281405	     -3.48289283	      4.25418925	      2.23661813	    -11.14533798	     15.96914569	     -4.18629482	     -8.29803630	     -3.06308471	     -9.47910589
      1.47000000	     -0.83046266	      0.38889170	      7.35857622	     -1.10211313	      1.06711027	     -0.62442589	     26.23106542	     -2.46567161	     -1.36478133	    -55.09412426	      7.21831287	      1.63400652	     -3.60334839	      4.13885040	      2.30825304	    -11.09847999	     16.06275179	     -4.17165223	     -8.38603206	     -2.93859668	     -9.50407509
      1.48000000	     -0.85585115	      0.26969534	      7.43959537	     -1.09982818	      1.06691074	     -0.62501191	     26.78139896	     -2.45272188	     -1.75429475	    -54.64616023	      7.49770237	      1.42817306	     -3.70769988	      4.02310690	      2.36699454	    -11.07465033	     16.18846821	     -4.13361886	     -8.46935950	     -2.81348286	     -9.51753750
      1.49000000	     -0.88532043	      0.15070282	      7.50320301	     -1.09742400	      1.06665968	     -0.62555878	     27.27007373	     -2.43646950	     -2.14939890	    -53.99887457	      7.74394486	      1.22343273	     -3.79866950	      3.90871012	      2.41492170	    -11.08049654	     16.34546892	     -4.05986163	     -8.54905044	     -2.68807516	     -9.51648033
      1.50000000	     -0.91869983	      0.03403356	      7.55314259	     -1.09489139	      1.06635715	     -0.62605522	     27.69458848	     -2.41050269	     -2.53678940	    -53.16065254	      7.96204689	      1.07507119	     -3.88186737	      3.79447505	      2.42765906	    -11.10402431	     16.53997501	     -3.97698141	     -8.62688576	     -2.56648258	     -9.51970727
      1.51000000	     -0.95674397	     -0.08195948	      7.58656418	     -1.09222785	      1.06600288	     -0.62648092	     28.05546204	     -2.37211026	     -2.92511824	    -52.13810330	      8.15553103	      0.92758507	     -3.95180205	      3.67967552	      2.43512183	    -11.15987453	     16.75801973	     -3.86588817	     -8.70115866	     -2.45186987	     -9.50816126
      1.52000000	     -0.99939778	     -0.19248354	      7.59890603	     -1.08944260	      1.06559068	     -0.62686065	     28.35702205	     -2.32379784	     -3.30526431	    -50.94695957	      8.31797408	      0.80026923	     -4.01249969	      3.57185265	      2.42623925	    -11.23994091	     16.99545372	     -3.75212036	     -8.77411851	     -2.34175113	     -9.49631555
      1.53000000	     -1.04653288	     -0.30034650	      7.59960952	     -1.08652343	      1.06512314	     -0.62718353	     28.59591346	     -2.26405462	     -3.68888154	    -49.59259615	      8.46176238	      0.68474611	     -4.06734080	      3.46486447	      2.40723269	    -11.33837045	     17.24208669	     -3.63858450	     -8.84592338	     -2.23660285	     -9.47481211
      1.54000000	     -1.09927209	     -0.40495424	      7.58389968	     -1.08345615	      1.06459419	     -0.62743811	     28.77407140	     -2.18961896	     -4.07542175	    -48.08500945	      8.59150338	      0.59522892	     -4.11742766	      3.35998289	      2.37660201	    -11.45307583	     17.49076138	     -3.54511287	     -8.91158419	     -2.13879504	     -9.45157887
      1.55000000	     -1.15301871	     -0.50924976	      7.55758930	     -1.08023039	      1.06401207	     -0.62763865	     28.88631490	     -2.10180518	     -4.48218507	    -46.43303297	      8.69780556	      0.52962246	     -4.17036409	      3.25272970	      2.33446465	    -11.57813465	     17.74319436	     -3.46780062	     -8.97535009	     -2.04237541	     -9.42998439
      1.56000000	     -1.21138155	     -0.61192515	      7.52321632	     -1.07684767	      1.06336961	     -0.62779275	     28.93851073	     -2.00326949	     -4.91671140	    -44.64892641	      8.78899385	      0.50591164	     -4.22256421	      3.14486096	      2.27835749	    -11.71254057	     18.00060760	     -3.41556340	     -9.03226452	     -1.94729125	     -9.41015737
      1.57000000	     -1.23401629	     -0.71464695	      7.48932679	     -1.07326601	      1.06273664	     -0.62790622	     28.88102358	     -1.89311887	     -5.40846652	    -42.73539152	      8.87509070	      0.51245409	     -4.33163792	      3.02732556	      2.21864475	    -11.83137258	     18.24748708	     -3.34668896	     -9.12428374	     -1.84707627	     -9.40268739
      1.58000000	     -1.32384231	     -0.82684311	      7.45036361	     -1.06957587	      1.06193502	     -0.62794708	     28.84608282	     -1.76279563	     -5.92501171	    -40.72507880	      8.92149927	      0.60493458	     -4.34819589	      2.90581765	      2.14820711	    -12.00342016	     18.54330933	     -3.36690238	     -9.13973115	     -1.74894449	     -9.38990228
      1.59000000	     -1.33775061	     -0.94104487	      7.42381106	     -1.06566501	      1.06121703	     -0.62797768	     28.65572328	     -1.61664334	     -6.51502107	    -38.60074503	      8.98454079	      0.76908438	     -4.47685715	      2.76790570	      2.09859423	    -12.13884019	     18.79850196	     -3.37711932	     -9.23387440	     -1.63351492	     -9.39720706
      1.60000000	     -1.43685630	     -1.07327252	      7.39530325	     -1.06165050	      1.06030488	     -0.62792671	     28.51546528	     -1.44017437	     -7.12952517	    -36.40669305	      8.99820162	      0.94895644	     -4.48915948	      2.61799982	      2.03752531	    -12.33568071	     19.10049562	     -3.45795849	     -9.22844931	     -1.51515148	     -9.38826782
